<?xml version="1.0" standalone="no"?>
<!DOCTYPE svg PUBLIC "-//W3C//DTD SVG 20010904//EN"
 "http://www.w3.org/TR/2001/REC-SVG-20010904/DTD/svg10.dtd">
<svg version="1.0" xmlns="http://www.w3.org/2000/svg"
 width="1164.000000pt" height="1280.000000pt" viewBox="0 0 1164.000000 1280.000000"
 preserveAspectRatio="xMidYMid meet">
<g transform="translate(0.000000,1280.000000) scale(0.100000,-0.100000)"
fill="#000000" stroke="none">
<path d="M5035 12785 c-280 -38 -452 -77 -666 -151 -221 -76 -346 -143 -539
-292 -673 -517 -911 -1190 -685 -1936 77 -256 239 -584 374 -761 196 -258 515
-437 912 -514 331 -64 778 -59 1194 12 104 18 166 22 310 21 167 -1 188 -3
295 -31 210 -56 376 -150 524 -296 103 -103 186 -227 286 -429 173 -349 309
-746 530 -1553 113 -413 127 -436 205 -353 l45 47 0 443 c-1 1865 -271 3429
-770 4443 -279 570 -633 966 -1045 1172 -285 143 -686 216 -970 178z"/>
<path d="M8999 12044 c-324 -58 -582 -272 -759 -629 -164 -331 -245 -672 -306
-1280 -11 -115 -17 -307 -20 -680 -2 -286 -5 -672 -7 -858 l-3 -338 25 3 c37
4 54 42 111 243 130 458 180 606 267 780 143 289 332 482 573 586 120 52 230
76 416 93 247 23 381 64 534 167 192 129 345 336 424 574 73 219 77 497 10
702 -81 247 -238 426 -467 533 -216 101 -565 147 -798 104z"/>
<path d="M10145 10065 c-157 -24 -342 -83 -476 -150 -263 -133 -551 -390 -787
-701 -314 -416 -598 -1033 -803 -1744 -120 -416 -244 -1000 -211 -1000 22 0
98 99 116 151 26 74 107 235 173 344 339 558 771 869 1268 910 107 9 266 -8
450 -50 274 -62 339 -70 580 -69 202 0 229 2 331 26 172 41 294 94 409 178
184 135 318 318 384 520 46 145 70 345 52 438 -6 32 -17 95 -26 142 -96 518
-489 917 -989 1005 -107 18 -355 19 -471 0z"/>
<path d="M3070 6623 c-41 -99 -139 -175 -279 -217 -30 -9 -115 -23 -188 -31
-224 -26 -371 -80 -499 -183 -108 -87 -201 -227 -253 -379 -22 -67 -56 -233
-66 -325 -4 -32 -11 -58 -16 -58 -5 0 -29 39 -53 88 -116 231 -268 407 -414
480 -169 85 -317 80 -652 -20 -209 -63 -298 -53 -537 58 -53 24 -99 44 -104
44 -12 0 -11 -90 0 -143 5 -23 17 -82 26 -132 66 -359 311 -634 670 -754 170
-57 282 -74 460 -73 88 1 174 3 190 4 l30 3 11 -290 c12 -292 22 -423 50 -635
122 -932 462 -1743 1003 -2394 181 -217 463 -485 695 -660 716 -541 1652 -886
2631 -970 417 -36 466 -39 615 -33 1281 48 2342 392 3067 994 120 99 345 328
436 443 320 403 514 858 594 1395 27 184 24 609 -6 805 -98 642 -373 1205
-805 1648 -439 450 -986 721 -1631 808 -164 22 -612 26 -755 6 -602 -85 -1037
-292 -1481 -708 -266 -250 -421 -439 -885 -1078 -315 -434 -443 -590 -642
-779 -208 -196 -404 -311 -643 -374 -97 -25 -118 -27 -304 -28 -287 0 -442 34
-642 140 -500 265 -699 888 -577 1807 8 58 12 60 124 77 163 25 437 143 599
258 179 127 289 286 347 503 25 93 25 354 0 470 -18 87 -69 255 -84 278 -6 8
-16 -7 -32 -45z"/>
</g>
</svg>
